<svg xmlns="http://www.w3.org/2000/svg" width="1200" height="1200" viewBox="0 0 1200 1200">
  <defs>
    <!-- Claude symbol as mask: white = visible, black = hidden -->
    <mask id="claude-mask">
      <rect width="1200" height="1200" fill="black"/>
      <path fill="white" d="M 233.959793 800.214905 L 468.644287 668.536987 L 472.590637 657.100647 L 468.644287 650.738403 L 457.208069 650.738403 L 417.986633 648.322144 L 283.892639 644.69812 L 167.597321 639.865845 L 54.926208 633.825623 L 26.577238 627.785339 L 3.3e-05 592.751709 L 2.73832 575.27533 L 26.577238 559.248352 L 60.724873 562.228149 L 136.187973 567.382629 L 249.422867 575.194763 L 331.570496 580.026978 L 453.261841 592.671082 L 472.590637 592.671082 L 475.328857 584.859009 L 468.724915 580.026978 L 463.570557 575.194763 L 346.389313 495.785217 L 219.543671 411.865906 L 153.100723 363.543762 L 117.181267 339.060425 L 99.060455 316.107361 L 91.248367 266.01355 L 123.865784 230.093994 L 167.677887 233.073853 L 178.872513 236.053772 L 223.248367 270.201477 L 318.040283 343.570496 L 441.825592 434.738342 L 459.946411 449.798706 L 467.194672 444.64447 L 468.080597 441.020203 L 459.946411 427.409485 L 392.617493 305.718323 L 320.778564 181.932983 L 288.80542 130.630859 L 280.348999 99.865845 C 277.369171 87.221436 275.194641 76.590698 275.194641 63.624268 L 312.322174 13.20813 L 332.8591 6.604126 L 382.389313 13.20813 L 403.248352 31.328979 L 434.013519 101.71814 L 483.865753 212.537048 L 561.181274 363.221497 L 583.812134 407.919434 L 595.892639 449.315491 L 600.40271 461.959839 L 608.214783 461.959839 L 608.214783 454.711609 L 614.577271 369.825623 L 626.335632 265.61084 L 637.771851 131.516846 L 641.718201 93.745117 L 660.402832 48.483276 L 697.530334 24.000122 L 726.52356 37.852417 L 750.362549 72 L 747.060486 94.067139 L 732.886047 186.201416 L 705.100708 330.52356 L 686.979919 427.167847 L 697.530334 427.167847 L 709.61084 415.087341 L 758.496704 350.174561 L 840.644348 247.490051 L 876.885925 206.738342 L 919.167847 161.71814 L 946.308838 140.29541 L 997.61084 140.29541 L 1035.38269 196.429626 L 1018.469849 254.416199 L 965.637634 321.422852 L 921.825562 378.201538 L 859.006714 462.765259 L 819.785278 530.41626 L 823.409424 535.812073 L 832.75177 534.92627 L 974.657776 504.724915 L 1051.328979 490.872559 L 1142.818848 475.167786 L 1184.214844 494.496582 L 1188.724854 514.147644 L 1172.456421 554.335693 L 1074.604126 578.496765 L 959.838989 601.449829 L 788.939636 641.879272 L 786.845764 643.409485 L 789.261841 646.389343 L 866.255127 653.637634 L 899.194702 655.409424 L 979.812134 655.409424 L 1129.932861 666.604187 L 1169.154419 692.537109 L 1192.671265 724.268677 L 1188.724854 748.429688 L 1128.322144 779.194641 L 1046.818848 759.865845 L 856.590759 714.604126 L 791.355774 698.335754 L 782.335693 698.335754 L 782.335693 703.731567 L 836.69812 756.885986 L 936.322205 846.845581 L 1061.073975 962.81897 L 1067.436279 991.490112 L 1051.409424 1014.120911 L 1034.496704 1011.704712 L 924.885986 929.234924 L 882.604126 892.107544 L 786.845764 811.48999 L 780.483276 811.48999 L 780.483276 819.946289 L 802.550415 852.241699 L 919.087341 1027.409424 L 925.127625 1081.127686 L 916.671204 1098.604126 L 886.469849 1109.154419 L 853.288696 1103.114136 L 785.073914 1007.355835 L 714.684631 899.516785 L 657.906067 802.872498 L 650.979858 806.81897 L 617.476624 1167.704834 L 601.771851 1186.147705 L 565.530212 1200 L 535.328857 1177.046997 L 519.302124 1139.919556 L 535.328857 1066.550537 L 554.657776 970.792053 L 570.362488 894.68457 L 584.536926 800.134277 L 592.993347 768.724976 L 592.429626 766.630859 L 585.503479 767.516968 L 514.22821 865.369263 L 405.825531 1011.865906 L 320.053711 1103.677979 L 299.516815 1111.812256 L 263.919525 1093.369263 L 267.221497 1060.429688 L 287.114136 1031.114136 L 405.825531 880.107361 L 477.422913 786.52356 L 523.651062 732.483276 L 523.328918 724.671265 L 520.590698 724.671265 L 205.288605 929.395935 L 149.154434 936.644409 L 124.993355 914.01355 L 127.973183 876.885986 L 139.409409 864.80542 L 234.201385 799.570435 L 233.879227 799.8927 Z"/>
    </mask>
  </defs>

  <!-- Firefox logo scaled to fill 1200x1200, masked by Claude shape -->
  <g mask="url(#claude-mask)">
    <g transform="scale(2.34375)">
      <defs><radialGradient id="g" cx="210%" cy="-100%" r="290%"><stop offset=".1" stop-color="#ffe226"/><stop offset=".79" stop-color="#ff7139"/></radialGradient><radialGradient id="c" cx="49%" cy="40%" r="128%" gradientTransform="matrix(.82 0 0 1 .088 0)"><stop offset=".3" stop-color="#960e18"/><stop offset=".35" stop-color="#b11927" stop-opacity=".74"/><stop offset=".43" stop-color="#db293d" stop-opacity=".34"/><stop offset=".5" stop-color="#f5334b" stop-opacity=".09"/><stop offset=".53" stop-color="#ff3750" stop-opacity="0"/></radialGradient><radialGradient id="d" cx="48%" cy="-12%" r="140%"><stop offset=".13" stop-color="#fff44f"/><stop offset=".53" stop-color="#ff980e"/></radialGradient><radialGradient id="e" cx="22.76%" cy="110.11%" r="100%"><stop offset=".35" stop-color="#3a8ee6"/><stop offset=".67" stop-color="#9059ff"/><stop offset="1" stop-color="#c139e6"/></radialGradient><radialGradient id="f" cx="52%" cy="33%" r="59%" gradientTransform="scale(.9 1)"><stop offset=".21" stop-color="#9059ff" stop-opacity="0"/><stop offset=".97" stop-color="#6e008b" stop-opacity=".6"/></radialGradient><radialGradient id="b" cx="87.4%" cy="-12.9%" r="128%" gradientTransform="matrix(.8 0 0 1 .178 .129)"><stop offset=".13" stop-color="#ffbd4f"/><stop offset=".28" stop-color="#ff980e"/><stop offset=".47" stop-color="#ff3750"/><stop offset=".78" stop-color="#eb0878"/><stop offset=".86" stop-color="#e50080"/></radialGradient><radialGradient id="h" cx="84%" cy="-41%" r="180%"><stop offset=".11" stop-color="#fff44f"/><stop offset=".46" stop-color="#ff980e"/><stop offset=".72" stop-color="#ff3647"/><stop offset=".9" stop-color="#e31587"/></radialGradient><radialGradient id="i" cx="16.1%" cy="-18.6%" r="348.8%" gradientTransform="scale(1 .47) rotate(84 .279 -.297)"><stop offset="0" stop-color="#fff44f"/><stop offset=".3" stop-color="#ff980e"/><stop offset=".57" stop-color="#ff3647"/><stop offset=".74" stop-color="#e31587"/></radialGradient><radialGradient id="j" cx="18.9%" cy="-42.5%" r="238.4%"><stop offset=".14" stop-color="#fff44f"/><stop offset=".48" stop-color="#ff980e"/><stop offset=".66" stop-color="#ff3647"/><stop offset=".9" stop-color="#e31587"/></radialGradient><radialGradient id="k" cx="159.3%" cy="-44.72%" r="313.1%"><stop offset=".09" stop-color="#fff44f"/><stop offset=".63" stop-color="#ff980e"/></radialGradient><linearGradient id="a" x1="87.25%" y1="15.5%" x2="9.4%" y2="93.1%"><stop offset=".05" stop-color="#fff44f"/><stop offset=".37" stop-color="#ff980e"/><stop offset=".53" stop-color="#ff3647"/><stop offset=".7" stop-color="#e31587"/></linearGradient><linearGradient id="l" x1="80%" y1="14%" x2="18%" y2="84%"><stop offset=".17" stop-color="#fff44f" stop-opacity=".8"/><stop offset=".6" stop-color="#fff44f" stop-opacity="0"/></linearGradient></defs><path d="M478.711 166.353c-10.445-25.124-31.6-52.248-48.212-60.821 13.52 26.505 21.345 53.093 24.335 72.936 0 .039.015.136.047.4C427.706 111.135 381.627 83.823 344 24.355c-1.9-3.007-3.805-6.022-5.661-9.2a73.716 73.716 0 01-2.646-4.972A43.7 43.7 0 01332.1.677a.626.626 0 00-.546-.644.818.818 0 00-.451 0c-.034.012-.084.051-.12.065-.053.021-.12.069-.176.1.027-.036.083-.117.1-.136-60.37 35.356-80.85 100.761-82.732 133.484a120.249 120.249 0 00-66.142 25.488 71.355 71.355 0 00-6.225-4.7 111.338 111.338 0 01-.674-58.732c-24.688 11.241-43.89 29.01-57.85 44.7h-.111c-9.527-12.067-8.855-51.873-8.312-60.184-.114-.515-7.107 3.63-8.023 4.255a175.073 175.073 0 00-23.486 20.12 210.478 210.478 0 00-22.442 26.913c0 .012-.007.026-.011.038 0-.013.007-.026.011-.038a202.838 202.838 0 00-32.247 72.805c-.115.521-.212 1.061-.324 1.586-.452 2.116-2.08 12.7-2.365 15-.022.177-.032.347-.053.524a229.066 229.066 0 00-3.9 33.157c0 .41-.025.816-.025 1.227C16 388.418 123.6 496 256.324 496c118.865 0 217.56-86.288 236.882-199.63.407-3.076.733-6.168 1.092-9.271 4.777-41.21-.53-84.525-15.587-120.746zM201.716 354.447c1.124.537 2.18 1.124 3.334 1.639.048.033.114.07.163.1a126.191 126.191 0 01-3.497-1.739zm55.053-144.93zm198.131-30.59l-.032-.233c.012.085.027.174.04.259z" fill="url(#a)"/><path d="M478.711 166.353c-10.445-25.124-31.6-52.248-48.212-60.821 13.52 26.505 21.345 53.093 24.335 72.936 0-.058.011.048.036.226.012.085.027.174.04.259 22.675 61.47 10.322 123.978-7.479 162.175-27.539 59.1-94.215 119.67-198.576 116.716C136.1 454.651 36.766 370.988 18.223 261.41c-3.379-17.28 0-26.054 1.7-40.084-2.071 10.816-2.86 13.94-3.9 33.157 0 .41-.025.816-.025 1.227C16 388.418 123.6 496 256.324 496c118.865 0 217.56-86.288 236.882-199.63.407-3.076.733-6.168 1.092-9.271 4.777-41.21-.53-84.525-15.587-120.746z" fill="url(#b)"/><path d="M478.711 166.353c-10.445-25.124-31.6-52.248-48.212-60.821 13.52 26.505 21.345 53.093 24.335 72.936 0-.058.011.048.036.226.012.085.027.174.04.259 22.675 61.47 10.322 123.978-7.479 162.175-27.539 59.1-94.215 119.67-198.576 116.716C136.1 454.651 36.766 370.988 18.223 261.41c-3.379-17.28 0-26.054 1.7-40.084-2.071 10.816-2.86 13.94-3.9 33.157 0 .41-.025.816-.025 1.227C16 388.418 123.6 496 256.324 496c118.865 0 217.56-86.288 236.882-199.63.407-3.076.733-6.168 1.092-9.271 4.777-41.21-.53-84.525-15.587-120.746z" fill="url(#c)"/><path d="M361.922 194.6c.524.368 1 .734 1.493 1.1a130.706 130.706 0 00-22.31-29.112C266.4 91.892 321.516 4.626 330.811.194c.027-.036.083-.117.1-.136-60.37 35.356-80.85 100.761-82.732 133.484 2.8-.194 5.592-.429 8.442-.429 45.051 0 84.289 24.77 105.301 61.487z" fill="url(#d)"/><path d="M256.772 209.514c-.393 5.978-21.514 26.593-28.9 26.593-68.339 0-79.432 41.335-79.432 41.335 3.027 34.81 27.261 63.475 56.611 78.643 1.339.692 2.694 1.317 4.05 1.935a132.768 132.768 0 007.059 2.886 106.743 106.743 0 0031.271 6.031c119.78 5.618 142.986-143.194 56.545-186.408 22.137-3.85 45.115 5.053 57.947 14.067-21.012-36.714-60.25-61.484-105.3-61.484-2.85 0-5.641.235-8.442.429a120.249 120.249 0 00-66.142 25.488c3.664 3.1 7.8 7.244 16.514 15.828 16.302 16.067 58.13 32.705 58.219 34.657z" fill="url(#e)"/><path d="M256.772 209.514c-.393 5.978-21.514 26.593-28.9 26.593-68.339 0-79.432 41.335-79.432 41.335 3.027 34.81 27.261 63.475 56.611 78.643 1.339.692 2.694 1.317 4.05 1.935a132.768 132.768 0 007.059 2.886 106.743 106.743 0 0031.271 6.031c119.78 5.618 142.986-143.194 56.545-186.408 22.137-3.85 45.115 5.053 57.947 14.067-21.012-36.714-60.25-61.484-105.3-61.484-2.85 0-5.641.235-8.442.429a120.249 120.249 0 00-66.142 25.488c3.664 3.1 7.8 7.244 16.514 15.828 16.302 16.067 58.13 32.705 58.219 34.657z" fill="url(#f)"/><path d="M170.829 151.036a244.042 244.042 0 014.981 3.3 111.338 111.338 0 01-.674-58.732c-24.688 11.241-43.89 29.01-57.85 44.7 1.155-.033 36.014-.66 53.543 10.732z" fill="url(#g)"/><path d="M18.223 261.41C36.766 370.988 136.1 454.651 248.855 457.844c104.361 2.954 171.037-57.62 198.576-116.716 17.8-38.2 30.154-100.7 7.479-162.175l-.008-.026-.032-.233c-.025-.178-.04-.284-.036-.226 0 .039.015.136.047.4 8.524 55.661-19.79 109.584-64.051 146.044l-.133.313c-86.245 70.223-168.774 42.368-185.484 30.966a144.108 144.108 0 01-3.5-1.743c-50.282-24.029-71.054-69.838-66.6-109.124-42.457 0-56.934-35.809-56.934-35.809s38.119-27.179 88.358-3.541c46.53 21.893 90.228 3.543 90.233 3.541-.089-1.952-41.917-18.59-58.223-34.656-8.713-8.584-12.85-12.723-16.514-15.828a71.355 71.355 0 00-6.225-4.7 282.929 282.929 0 00-4.981-3.3c-17.528-11.392-52.388-10.765-53.543-10.735h-.111c-9.527-12.067-8.855-51.873-8.312-60.184-.114-.515-7.107 3.63-8.023 4.255a175.073 175.073 0 00-23.486 20.12 210.478 210.478 0 00-22.442 26.919c0 .012-.007.026-.011.038 0-.013.007-.026.011-.038a202.838 202.838 0 00-32.247 72.805c-.115.521-8.65 37.842-4.44 57.199z" fill="url(#h)"/><path d="M341.105 166.587a130.706 130.706 0 0122.31 29.112c1.323.994 2.559 1.985 3.608 2.952 54.482 50.2 25.936 121.2 23.807 126.26 44.261-36.46 72.575-90.383 64.051-146.044C427.706 111.135 381.627 83.823 344 24.355c-1.9-3.007-3.805-6.022-5.661-9.2a73.716 73.716 0 01-2.646-4.972A43.7 43.7 0 01332.1.677a.626.626 0 00-.546-.644.818.818 0 00-.451 0c-.034.012-.084.051-.12.065-.053.021-.12.069-.176.1-9.291 4.428-64.407 91.694 10.298 166.389z" fill="url(#i)"/><path d="M367.023 198.651c-1.049-.967-2.285-1.958-3.608-2.952-.489-.368-.969-.734-1.493-1.1-12.832-9.014-35.81-17.917-57.947-14.067 86.441 43.214 63.235 192.026-56.545 186.408a106.743 106.743 0 01-31.271-6.031 134.51 134.51 0 01-7.059-2.886c-1.356-.618-2.711-1.243-4.05-1.935.048.033.114.07.163.1 16.71 11.4 99.239 39.257 185.484-30.966l.133-.313c2.129-5.054 30.675-76.057-23.807-126.258z" fill="url(#j)"/><path d="M148.439 277.443s11.093-41.335 79.432-41.335c7.388 0 28.509-20.615 28.9-26.593s-43.7 18.352-90.233-3.541c-50.239-23.638-88.358 3.541-88.358 3.541s14.477 35.809 56.934 35.809c-4.453 39.286 16.319 85.1 66.6 109.124 1.124.537 2.18 1.124 3.334 1.639-29.348-15.169-53.582-43.834-56.609-78.644z" fill="url(#k)"/><path d="M478.711 166.353c-10.445-25.124-31.6-52.248-48.212-60.821 13.52 26.505 21.345 53.093 24.335 72.936 0 .039.015.136.047.4C427.706 111.135 381.627 83.823 344 24.355c-1.9-3.007-3.805-6.022-5.661-9.2a73.716 73.716 0 01-2.646-4.972A43.7 43.7 0 01332.1.677a.626.626 0 00-.546-.644.818.818 0 00-.451 0c-.034.012-.084.051-.12.065-.053.021-.12.069-.176.1.027-.036.083-.117.1-.136-60.37 35.356-80.85 100.761-82.732 133.484 2.8-.194 5.592-.429 8.442-.429 45.053 0 84.291 24.77 105.3 61.484-12.832-9.014-35.81-17.917-57.947-14.067 86.441 43.214 63.235 192.026-56.545 186.408a106.743 106.743 0 01-31.271-6.031 134.51 134.51 0 01-7.059-2.886c-1.356-.618-2.711-1.243-4.05-1.935.048.033.114.07.163.1a144.108 144.108 0 01-3.5-1.743c1.124.537 2.18 1.124 3.334 1.639-29.35-15.168-53.584-43.833-56.611-78.643 0 0 11.093-41.335 79.432-41.335 7.388 0 28.509-20.615 28.9-26.593-.089-1.952-41.917-18.59-58.223-34.656-8.713-8.584-12.85-12.723-16.514-15.828a71.355 71.355 0 00-6.225-4.7 111.338 111.338 0 01-.674-58.732c-24.688 11.241-43.89 29.01-57.85 44.7h-.111c-9.527-12.067-8.855-51.873-8.312-60.184-.114-.515-7.107 3.63-8.023 4.255a175.073 175.073 0 00-23.486 20.12 210.478 210.478 0 00-22.435 26.916c0 .012-.007.026-.011.038 0-.013.007-.026.011-.038a202.838 202.838 0 00-32.247 72.805c-.115.521-.212 1.061-.324 1.586-.452 2.116-2.486 12.853-2.77 15.156-.022.177.021-.176 0 0a279.565 279.565 0 00-3.544 33.53c0 .41-.025.816-.025 1.227C16 388.418 123.6 496 256.324 496c118.865 0 217.56-86.288 236.882-199.63.407-3.076.733-6.168 1.092-9.271 4.777-41.21-.53-84.525-15.587-120.746zm-23.841 12.341c.012.085.027.174.04.259l-.008-.026-.032-.233z" fill="url(#l)"/>
    </g>
  </g>
</svg>
